<?xml version="1.0" encoding="UTF-8"?>
<svg xmlns="http://www.w3.org/2000/svg" width="354" height="102" viewBox="0 0 354 102" fill="none">
  <g clip-path="url(#clip0_126_1848)">
    <path d="M303.684 63.901C294.294 65.181 288.394 60.371 283.874 52.821C282.264 50.121 279.744 47.951 278.234 45.211C275.184 39.671 270.614 39.131 264.714 40.491V62.911C263.164 63.191 262.064 63.521 260.954 63.561C254.234 63.821 254.224 63.801 254.224 56.841C254.224 49.681 254.364 42.521 254.164 35.361C254.074 31.971 255.064 30.621 258.664 30.741C265.654 30.981 272.654 30.921 279.644 30.741C284.334 30.621 288.644 29.381 290.584 24.421C293.464 17.071 288.904 10.491 280.414 10.041C274.764 9.741 269.084 10.111 263.434 9.871C261.374 9.781 258.834 9.381 257.444 8.101C255.774 6.571 255.104 3.971 253.994 1.831C255.864 1.251 257.724 0.230998 259.614 0.180998C266.774 -0.00900179 273.944 -0.0890018 281.094 0.160998C296.314 0.700998 304.914 12.511 300.684 26.811C298.634 33.751 293.604 37.431 285.814 39.501C292.024 47.281 297.854 54.591 303.684 61.901V63.901Z" fill="black"></path>
    <path d="M93.9441 0.380342H103.564V63.1203C94.6541 64.7603 91.7541 63.6103 87.3441 56.7903C78.7641 43.5403 70.1941 30.2703 60.9541 16.0003V63.6203H51.1841C51.0441 62.0903 50.8041 60.6703 50.8041 59.2403C50.7741 41.0903 50.8841 22.9503 50.7041 4.80034C50.6641 1.02034 51.8741 0.0203424 55.5441 0.00034241C60.7641 -0.0296576 64.2741 1.91034 67.0541 6.34034C74.7541 18.6003 82.7341 30.6803 90.6241 42.8303C91.5141 44.2003 92.4741 45.5103 93.9441 47.6503V0.380342Z" fill="black"></path>
    <path d="M241.514 62.9307C231.744 64.6907 231.504 64.5607 228.464 56.5007C223.474 43.2707 218.474 30.0407 213.454 16.8207C212.874 15.3007 212.185 13.8207 211.085 11.2607C210.015 13.7307 209.315 15.1707 208.755 16.6607C203.685 30.0407 198.634 43.4307 193.574 56.8107C190.674 64.4907 189.754 64.9407 180.604 62.7907C181.094 61.2407 181.494 59.6807 182.074 58.1907C188.934 40.3307 195.925 22.5207 202.615 4.60066C203.965 0.980664 205.894 -0.369336 209.594 0.0906641C213.254 0.550664 217.184 -1.23934 219.234 4.37066C225.954 22.8107 233.285 41.0307 240.365 59.3407C240.775 60.3907 241.055 61.5007 241.505 62.9407L241.514 62.9307Z" fill="black"></path>
    <path d="M162.064 36.1298H133.924V53.6898H164.244V62.8698C163.134 63.0398 161.894 63.3898 160.654 63.3998C149.674 63.4398 138.694 63.3198 127.714 63.4898C124.274 63.5398 123.044 62.4898 123.124 58.9598C123.324 49.4798 123.324 39.9898 123.124 30.5098C123.054 26.8998 124.484 25.9798 127.834 26.0398C137.144 26.2098 146.464 26.0998 155.784 26.0998C160.37 26.0998 162.58 28.3765 162.414 32.9298C162.384 33.7298 162.244 34.5298 162.064 36.1198V36.1298Z" fill="black"></path>
    <path d="M164.214 9.90078C152.834 9.90078 141.854 10.0908 130.894 9.81078C126.084 9.69078 123.754 6.33078 123.724 0.550781H164.214V9.90078Z" fill="black"></path>
    <path d="M50.7031 100.626V73.5859H68.9431V76.7759H54.2831V85.1459H66.9731V88.3359H54.2831V100.616H50.7031V100.626Z" fill="#A2E4D0"></path>
    <path d="M73.8635 87.4555C73.8635 82.9655 75.0735 79.4555 77.4835 76.9155C79.8935 74.3755 83.0035 73.1055 86.8135 73.1055C89.3135 73.1055 91.5635 73.7055 93.5635 74.8955C95.5635 76.0855 97.0935 77.7555 98.1435 79.8855C99.1935 82.0155 99.7235 84.4355 99.7235 87.1455C99.7235 89.8555 99.1735 92.3455 98.0635 94.5055C96.9535 96.6655 95.3935 98.3055 93.3635 99.4255C91.3335 100.535 89.1435 101.095 86.7935 101.095C84.2435 101.095 81.9735 100.485 79.9635 99.2555C77.9635 98.0255 76.4435 96.3455 75.4035 94.2155C74.3735 92.0855 73.8535 89.8355 73.8535 87.4655L73.8635 87.4555ZM77.5535 87.5155C77.5535 90.7755 78.4335 93.3455 80.1835 95.2155C81.9335 97.0855 84.1335 98.0255 86.7735 98.0255C89.4135 98.0255 91.6835 97.0755 93.4235 95.1855C95.1635 93.2955 96.0335 90.6055 96.0335 87.1255C96.0335 84.9255 95.6635 83.0055 94.9135 81.3655C94.1735 79.7255 93.0835 78.4555 91.6535 77.5455C90.2235 76.6455 88.6135 76.1855 86.8335 76.1855C84.3035 76.1855 82.1235 77.0555 80.2935 78.7955C78.4635 80.5355 77.5535 83.4455 77.5535 87.5155Z" fill="#A2E4D0"></path>
    <path d="M123.443 73.5862H127.023V89.2062C127.023 91.9262 126.713 94.0862 126.103 95.6862C125.493 97.2862 124.383 98.5862 122.773 99.5862C121.163 100.586 119.063 101.086 116.453 101.086C113.843 101.086 111.843 100.646 110.233 99.7762C108.623 98.9062 107.473 97.6362 106.783 95.9862C106.093 94.3362 105.753 92.0762 105.753 89.2062V73.5862H109.333V89.1962C109.333 91.5462 109.553 93.2762 109.983 94.3862C110.423 95.4962 111.173 96.3562 112.233 96.9562C113.293 97.5562 114.593 97.8562 116.133 97.8562C118.763 97.8562 120.643 97.2562 121.763 96.0662C122.883 94.8762 123.443 92.5762 123.443 89.1862V73.5762V73.5862Z" fill="#A2E4D0"></path>
    <path d="M134.303 100.626V73.5859H137.973L152.173 94.8159V73.5859H155.603V100.626H151.933L137.733 79.3759V100.626H134.303Z" fill="#A2E4D0"></path>
    <path d="M162.983 100.626V73.5859H172.293C174.393 73.5859 176.003 73.7159 177.103 73.9759C178.653 74.3359 179.973 74.9759 181.073 75.9159C182.503 77.1259 183.563 78.6659 184.273 80.5359C184.983 82.4059 185.333 84.5559 185.333 86.9659C185.333 89.0159 185.093 90.8359 184.613 92.4259C184.133 94.0159 183.523 95.3259 182.773 96.3659C182.023 97.4059 181.203 98.2259 180.313 98.8159C179.423 99.4159 178.343 99.8659 177.083 100.176C175.823 100.486 174.373 100.636 172.743 100.636H162.983V100.626ZM166.563 97.4359H172.333C174.113 97.4359 175.513 97.2659 176.533 96.9359C177.553 96.6059 178.353 96.1359 178.963 95.5359C179.813 94.6859 180.473 93.5459 180.943 92.1159C181.413 90.6859 181.653 88.9459 181.653 86.9059C181.653 84.0759 181.193 81.9059 180.263 80.3859C179.333 78.8659 178.203 77.8459 176.883 77.3359C175.923 76.9659 174.383 76.7859 172.253 76.7859H166.573V97.4459L166.563 97.4359Z" fill="#A2E4D0"></path>
    <path d="M188.653 100.626L199.043 73.5859H202.893L213.963 100.626H209.883L206.733 92.4359H195.423L192.453 100.626H188.653ZM196.453 89.5259H205.623L202.803 82.0359C201.943 79.7559 201.303 77.8959 200.883 76.4259C200.543 78.1559 200.053 79.8859 199.423 81.5859L196.453 89.5159V89.5259Z" fill="#A2E4D0"></path>
    <path d="M222.264 100.626V76.7759H213.354V73.5859H234.784V76.7759H225.834V100.626H222.254H222.264Z" fill="#A2E4D0"></path>
    <path d="M240.423 100.626V73.5859H244.003V100.626H240.423Z" fill="#A2E4D0"></path>
    <path d="M250.583 87.4555C250.583 82.9655 251.793 79.4555 254.203 76.9155C256.613 74.3755 259.723 73.1055 263.533 73.1055C266.033 73.1055 268.283 73.7055 270.283 74.8955C272.283 76.0855 273.813 77.7555 274.863 79.8855C275.913 82.0155 276.443 84.4355 276.443 87.1455C276.443 89.8555 275.893 92.3455 274.783 94.5055C273.673 96.6655 272.113 98.3055 270.083 99.4255C268.053 100.535 265.863 101.095 263.513 101.095C260.963 101.095 258.693 100.485 256.683 99.2555C254.683 98.0255 253.163 96.3455 252.123 94.2155C251.093 92.0855 250.573 89.8355 250.573 87.4655L250.583 87.4555ZM254.273 87.5155C254.273 90.7755 255.153 93.3455 256.903 95.2155C258.653 97.0855 260.853 98.0255 263.493 98.0255C266.133 98.0255 268.403 97.0755 270.143 95.1855C271.883 93.2955 272.753 90.6055 272.753 87.1255C272.753 84.9255 272.383 83.0055 271.633 81.3655C270.893 79.7255 269.803 78.4555 268.363 77.5455C266.933 76.6455 265.323 76.1855 263.543 76.1855C261.013 76.1855 258.833 77.0555 257.003 78.7955C255.173 80.5355 254.263 83.4455 254.263 87.5155H254.273Z" fill="#A2E4D0"></path>
    <path d="M282.373 100.626V73.5859H286.043L300.243 94.8159V73.5859H303.673V100.626H300.003L285.803 79.3759V100.626H282.373Z" fill="#A2E4D0"></path>
  </g>
  <defs>
    <clipPath id="clip0_126_1848">
      <rect width="352.981" height="101.096" fill="white" transform="translate(0.703125)"></rect>
    </clipPath>
  </defs>
</svg>
